#!OML:ASF G:\JayActor3\Patient Classification 1\Patient 1\Session 6\male.ASF
:FULLY-SPECIFIED
:DEGREES
3025
root -3.74896 16.8584 -3.49906 79.1366 -88.022 -75.6582
lowerback 2.64507 -3.82581 -1.54161
upperback 2.63597 -5.15495 -0.49034
thorax 1.31641 -2.61287 0.426443
lowerneck 0.442484 -5.38204 -4.81467
upperneck -5.12978 -7.02277 9.44438
head -1.17112 -3.63969 3.98701
rclavicle 1.3418e-014 -1.66979e-014
rhumerus -51.0114 8.86722 -90.0134
rradius 41.6186
rwrist -0.795576
rhand -24.0768 -4.52773
rfingers 7.12502
rthumb 2.40319 -34.4939
lclavicle 1.3418e-014 -1.66979e-014
lhumerus -18.6386 -3.10666 80.6942
lradius 34.1483
lwrist 19.5944
lhand -18.1695 7.99
lfingers 7.12502
lthumb 8.10677 37.8145
rfemur -28.7326 9.54613 18.0957
rtibia 30.7396
rfoot -1.01698 -10.3789
rtoes 5.81854
lfemur 16.7759 -1.75378 -18.3121
ltibia 3.81667e-014
lfoot -7.0909 4.51242
ltoes -8.55073
3026
root -3.66824 16.8562 -3.46973 87.2206 -88.0072 -83.7709
lowerback 2.71007 -3.81342 -1.63123
upperback 2.64343 -5.14163 -0.491914
thorax 1.29538 -2.60783 0.478485
lowerneck 0.365118 -5.3247 -4.76263
upperneck -5.06678 -6.94576 9.56754
head -1.14033 -3.60324 4.01586
rclavicle 1.68967e-015 -9.54166e-015
rhumerus -50.9511 8.69649 -89.9809
rradius 41.5586
rwrist -0.724287
rhand -24.0453 -4.4934
rfingers 7.12502
rthumb 2.43361 -34.4593
lclavicle 1.68967e-015 -9.54166e-015
lhumerus -18.3198 -3.00386 80.7833
lradius 33.8589
lwrist 19.5074
lhand -18.1095 7.95274
lfingers 7.12502
lthumb 8.16466 37.775
rfemur -29.0943 9.53457 18.0526
rtibia 30.7149
rfoot -0.434708 -10.4203
rtoes 5.88301
lfemur 16.5614 -1.43927 -18.3499
ltibia -3.18055e-015
lfoot -7.33742 4.46108
ltoes -8.39621
3027
root -3.58722 16.8542 -3.44099 95.2172 -87.9418 -91.7914
lowerback 2.78351 -3.79814 -1.71015
upperback 2.65984 -5.12469 -0.491743
thorax 1.27793 -2.60099 0.526578
lowerneck 0.252807 -5.27219 -4.70871
upperneck -5.00859 -6.8748 9.69945
head -1.10417 -3.56948 4.04623
rclavicle -7.45443e-014 -1.19271e-014
rhumerus -50.8715 8.50964 -89.9445
rradius 41.4978
rwrist -0.63472
rhand -24.0159 -4.46558
rfingers 7.12502
rthumb 2.462 -34.4311
lclavicle -7.45443e-014 -1.19271e-014
lhumerus -17.9901 -2.87999 80.8736
lradius 33.5456
lwrist 19.4169
lhand -18.0453 7.95683
lfingers 7.12502
lthumb 8.22657 37.7767
rfemur -29.4601 9.48177 18.0417
rtibia 30.6828
rfoot 0.170885 -10.4692
rtoes 6.04338
lfemur 16.34 -1.1184 -18.3712
ltibia -1.27222e-014
lfoot -7.57637 4.41011
ltoes -8.23271
3028
root -3.50632 16.8524 -3.41267 102.811 -87.8354 -99.4128
lowerback 2.86643 -3.78097 -1.78625
upperback 2.6811 -5.10561 -0.493719
thorax 1.25965 -2.59311 0.571379
lowerneck 0.140114 -5.21883 -4.65026
upperneck -4.96536 -6.80245 9.83397
head -1.07303 -3.53542 4.07728
rclavicle 3.39922e-014 -3.18055e-015
rhumerus -50.7913 8.31745 -89.9123
rradius 41.4415
rwrist -0.539119
rhand -23.974 -4.44909
rfingers 7.12502
rthumb 2.50244 -34.4142
lclavicle 3.39922e-014 -3.18055e-015
lhumerus -17.6715 -2.73759 80.9642
lradius 33.2148
lwrist 19.3231
lhand -17.9981 8.00063
lfingers 7.12502
lthumb 8.27215 37.8187
rfemur -29.8181 9.37168 18.0585
rtibia 30.6432
rfoot 0.808576 -10.5151
rtoes 6.30588
lfemur 16.123 -0.789181 -18.3886
ltibia -6.36111e-015
lfoot -7.80724 4.36517
ltoes -8.05795
3029
root -3.42552 16.8507 -3.38448 109.785 -87.6779 -106.409
lowerback 2.94846 -3.76068 -1.84439
upperback 2.70609 -5.08219 -0.493933
thorax 1.24413 -2.58287 0.607778
lowerneck 0.0245056 -5.16432 -4.59253
upperneck -4.93365 -6.72841 9.97451
head -1.04507 -3.50078 4.11101
rclavicle 6.37105e-014 -7.95139e-016
rhumerus -50.7057 8.12483 -89.8846
rradius 41.3838
rwrist -0.44846
rhand -23.9195 -4.44023
rfingers 7.12502
rthumb 2.55509 -34.4047
lclavicle 6.37105e-014 -7.95139e-016
lhumerus -17.3689 -2.58642 81.0587
lradius 32.8752
lwrist 19.2179
lhand -17.9761 8.04588
lfingers 7.12502
lthumb 8.29337 37.8631
rfemur -30.1743 9.1818 18.1231
rtibia 30.5934
rfoot 1.49486 -10.5391
rtoes 6.62351
lfemur 15.9022 -0.447267 -18.3915
ltibia 6.67916e-014
lfoot -8.03063 4.33237
ltoes -7.88159
